<?xml version="1.0" standalone="no"?>
<!DOCTYPE svg PUBLIC "-//W3C//DTD SVG 20010904//EN"
 "http://www.w3.org/TR/2001/REC-SVG-20010904/DTD/svg10.dtd">
<svg version="1.0" xmlns="http://www.w3.org/2000/svg"
 width="300.000000pt" height="300.000000pt" viewBox="0 0 300.000000 300.000000"
 preserveAspectRatio="xMidYMid meet">
<metadata>
Created by potrace 1.10, written by Peter Selinger 2001-2011
</metadata>
<g transform="translate(0.000000,300.000000) scale(0.100000,-0.100000)"
fill="#dfe5ea" stroke="none">
<path d="M79 2993 c-1 -4 0 -18 1 -30 1 -16 -10 -29 -39 -48 -68 -42 -46 -58
29 -20 26 13 70 19 131 16 l36 -1 57 -125 c32 -69 56 -135 54 -147 -2 -16 -32
-40 -107 -85 -57 -35 -111 -63 -119 -63 -8 0 -39 18 -69 40 -38 29 -53 36 -53
25 0 -17 28 -47 74 -80 26 -18 30 -31 51 -150 12 -71 20 -133 16 -137 -4 -4
-34 -13 -66 -19 -65 -13 -85 -24 -69 -38 5 -5 38 -1 75 8 37 9 71 15 78 13 8
-3 9 -53 5 -180 -3 -97 -7 -186 -9 -197 -3 -11 -23 -39 -45 -63 -34 -37 -46
-43 -73 -40 -23 2 -32 -1 -32 -12 0 -8 10 -16 22 -18 12 -2 26 -9 32 -16 12
-15 71 -179 71 -198 0 -7 -27 -42 -60 -77 -57 -61 -78 -96 -66 -108 3 -3 37
29 77 71 71 76 85 84 117 66 20 -11 133 -61 180 -80 56 -22 57 -21 -157 -247
-89 -94 -122 -123 -141 -123 -28 1 -51 16 -68 45 -11 19 -11 19 -12 -3 0 -33
18 -62 39 -62 10 0 23 -6 28 -12 6 -7 13 -96 17 -197 6 -164 5 -186 -10 -202
-10 -11 -25 -19 -34 -19 -20 0 -44 -24 -38 -39 2 -6 21 -2 47 9 52 24 80 25
128 5 19 -8 44 -15 53 -15 24 0 60 -46 60 -77 0 -25 23 -128 42 -192 17 -55
-4 -64 -182 -87 -41 -5 -50 -2 -92 30 -26 20 -49 36 -52 36 -14 0 -4 -32 15
-48 75 -60 74 -59 61 -75 -10 -11 -10 -17 -1 -22 6 -4 20 3 33 18 16 18 38 28
91 37 147 26 156 25 208 -14 l47 -36 101 35 c56 19 115 35 132 35 37 0 106
-30 126 -53 18 -23 40 -22 34 2 -4 15 18 30 121 85 70 36 132 66 138 66 6 0
53 -40 104 -90 82 -81 114 -104 114 -83 0 4 -44 51 -97 105 l-97 97 24 103
c13 57 27 108 31 114 5 5 33 27 63 48 l56 38 60 -18 c33 -10 68 -27 79 -38 15
-17 91 -310 91 -351 0 -6 -34 -28 -75 -50 -41 -22 -75 -44 -75 -48 0 -16 64 5
122 39 l58 33 82 -11 c88 -12 110 -21 102 -43 -3 -7 -1 -16 5 -19 6 -4 17 9
25 29 18 42 40 45 115 15 76 -30 206 -53 256 -46 26 4 59 19 81 37 43 34 71
43 117 36 190 -28 200 -31 205 -49 5 -22 32 -24 32 -2 0 15 15 16 131 11 94
-5 138 -11 155 -22 25 -16 28 -13 24 18 -1 10 21 38 49 65 28 27 51 56 51 65
0 9 -3 17 -6 17 -3 0 -33 -26 -66 -57 l-60 -58 -126 3 c-70 2 -131 6 -135 9
-5 3 -7 19 -4 37 3 17 13 82 23 144 l17 114 61 40 c34 23 91 63 127 90 37 26
71 48 76 48 6 0 27 -13 48 -30 44 -35 45 -35 45 -15 0 9 -18 32 -40 53 -36 34
-44 50 -86 186 -25 82 -41 152 -37 156 4 4 43 15 86 24 52 12 77 22 77 32 0
18 1 18 -95 -5 -44 -11 -82 -17 -85 -14 -3 2 -11 46 -18 96 -26 187 -26 179 0
217 33 48 125 109 166 109 21 1 32 6 32 16 0 8 -9 15 -20 15 -26 0 -28 5 -33
130 l-4 104 28 25 c26 23 39 51 23 51 -4 0 -21 -9 -39 -20 l-33 -20 -93 26
c-52 14 -100 27 -107 30 -9 2 -11 14 -7 36 3 18 10 93 15 167 5 74 11 135 12
137 10 9 113 44 132 44 12 0 45 -11 71 -25 27 -13 51 -22 53 -20 12 12 -13 38
-55 57 -27 11 -49 22 -51 23 -6 6 21 271 30 288 5 10 20 17 38 17 31 0 48 16
33 31 -6 6 -20 6 -37 -1 -17 -6 -34 -7 -44 -1 -22 12 -142 204 -142 228 0 9 5
41 12 69 l12 51 99 6 c55 4 102 8 104 11 3 3 2 10 -2 17 -6 8 -34 10 -105 4
l-97 -6 -22 27 c-27 35 -27 48 5 90 20 26 23 34 11 34 -17 0 -47 -26 -47 -41
0 -17 -40 -9 -71 14 -27 19 -42 22 -122 20 -74 -1 -114 -8 -207 -36 -122 -38
-136 -37 -142 10 -2 15 -9 28 -17 31 -10 3 -12 -6 -6 -45 l6 -49 -80 -13
c-117 -18 -186 0 -264 68 -18 16 -46 33 -63 37 l-29 7 19 -21 c11 -12 50 -43
88 -69 37 -26 68 -54 68 -63 0 -9 -17 -59 -38 -110 l-38 -95 -70 -27 c-38 -15
-81 -27 -95 -27 -28 -1 -159 54 -159 67 0 29 51 247 61 258 6 8 30 23 53 33
22 10 50 26 61 35 19 17 18 17 -20 11 -22 -4 -54 -15 -71 -26 -39 -24 -54 -24
-109 1 -25 11 -66 23 -92 26 l-48 5 57 -25 c88 -40 123 -62 121 -77 -15 -102
-44 -233 -53 -244 -15 -18 -119 -75 -137 -75 -7 0 -47 19 -88 43 l-74 42 -11
70 c-7 39 -15 84 -20 100 -6 24 -1 42 27 93 19 35 32 66 29 69 -12 12 -36 -8
-55 -46 -12 -22 -25 -42 -31 -46 -11 -6 -199 13 -240 25 -19 5 -25 14 -25 35
0 39 -21 43 -28 6 -7 -33 -68 -107 -96 -116 -12 -4 -39 17 -92 70 -52 52 -83
75 -100 75 -20 0 -11 -13 67 -92 l90 -93 -7 -50 c-4 -27 -8 -71 -8 -96 -1 -57
-13 -68 -81 -76 -39 -4 -69 0 -125 17 l-73 23 -66 145 -66 146 37 38 c30 31
34 38 18 38 -10 0 -32 -12 -48 -27 -25 -25 -36 -28 -95 -28 -62 0 -66 2 -72
24 -5 24 -29 42 -31 24z m2581 -53 c32 -21 67 -56 80 -77 21 -35 21 -40 8
-107 l-13 -70 -115 -78 c-112 -74 -117 -77 -175 -76 -33 0 -82 3 -110 6 -44 6
-50 10 -53 32 -2 14 -19 88 -38 164 -19 77 -31 143 -27 147 17 16 340 107 362
103 13 -3 49 -23 81 -44z m-1670 -57 c63 -9 118 -21 121 -26 7 -11 33 -187 27
-191 -1 -2 -72 -38 -155 -80 l-153 -77 -44 33 c-24 18 -52 38 -62 44 -17 10
-18 18 -6 120 11 105 13 110 44 136 34 28 86 57 103 58 5 0 62 -8 125 -17z
m1187 -25 c6 -7 16 -40 22 -73 7 -33 17 -78 22 -100 33 -144 33 -153 6 -188
-14 -17 -43 -52 -66 -76 -23 -24 -41 -48 -41 -53 0 -4 -8 -8 -17 -8 -11 0 -45
37 -83 87 -36 48 -82 107 -102 131 -21 24 -38 48 -38 54 0 18 71 192 83 205 7
7 46 16 87 21 108 13 116 13 127 0z m638 -313 l66 -100 -7 -104 c-4 -58 -9
-128 -13 -155 l-6 -51 -60 -22 c-89 -33 -162 -20 -183 34 -17 41 -84 304 -86
332 -1 21 17 37 104 97 58 39 108 71 112 70 4 0 37 -46 73 -101z m-1591 60
c20 -14 40 -25 44 -25 4 0 18 -9 32 -20 l25 -19 -3 -173 c-2 -95 -5 -180 -7
-188 -4 -12 -161 -100 -179 -100 -2 0 -31 21 -64 48 -33 26 -85 65 -115 86
-59 42 -51 25 -99 214 -6 25 -7 47 -2 52 22 21 282 148 305 149 14 1 43 -10
63 -24z m377 -27 l64 -33 17 -140 c26 -214 32 -194 -65 -234 -103 -42 -138
-46 -207 -24 l-55 18 3 168 c1 92 2 174 2 183 0 19 46 63 85 80 48 21 87 16
156 -18z m296 -29 c24 -30 69 -87 100 -127 83 -106 90 -118 77 -139 -6 -10
-49 -33 -95 -51 -78 -31 -89 -33 -157 -27 -63 6 -74 10 -81 28 -5 12 -16 86
-26 165 -18 149 -15 172 24 172 9 0 34 9 56 19 22 11 45 18 50 17 6 -2 29 -27
52 -57z m-1433 29 c34 -12 63 -23 65 -24 1 -2 -29 -86 -69 -187 l-72 -185 -97
-4 c-53 -3 -99 -2 -103 1 -4 3 -16 60 -28 125 -21 118 -21 120 -2 145 18 24
216 151 236 151 5 0 36 -10 70 -22z m291 -57 l60 -48 23 -99 c13 -55 20 -107
17 -115 -3 -8 -43 -34 -88 -57 -45 -23 -110 -57 -145 -77 l-62 -36 -71 42
c-38 23 -68 47 -66 53 3 6 30 73 61 148 31 75 56 143 56 151 0 20 39 67 64 77
51 21 89 11 151 -39z m1696 -27 l37 -5 42 -169 c23 -92 43 -176 43 -186 2 -14
-19 -22 -108 -45 -60 -15 -121 -28 -135 -28 -36 -1 -220 183 -220 220 0 19 25
56 87 128 l87 102 65 -6 c36 -3 82 -8 102 -11z m-270 -356 c54 -50 101 -100
105 -111 3 -11 2 -36 -4 -56 -6 -20 -18 -66 -27 -103 -15 -57 -24 -74 -65
-112 -53 -50 -42 -48 -219 -27 l-53 6 1 215 c1 118 4 217 7 220 8 8 127 58
142 59 8 1 58 -40 113 -91z m-1187 8 c55 -40 104 -80 110 -89 7 -11 5 -32 -8
-73 -14 -45 -33 -73 -90 -133 -39 -42 -88 -96 -109 -120 l-37 -44 -112 22
c-62 12 -116 25 -119 29 -8 9 -49 259 -49 298 0 27 11 34 143 106 78 42 149
76 157 76 8 1 60 -32 114 -72z m888 16 c5 -5 7 -104 6 -222 l-3 -213 -60 -30
c-105 -53 -154 -34 -190 74 -12 35 -41 118 -64 184 -24 66 -43 126 -44 133 -1
8 19 22 46 33 26 10 68 28 95 39 38 17 61 20 126 15 44 -2 83 -8 88 -13z
m-1443 -42 c87 -47 104 -63 107 -101 1 -19 10 -85 20 -147 9 -62 15 -114 13
-116 -4 -4 -381 13 -386 17 -1 2 1 84 5 183 l7 179 70 6 c39 3 78 6 89 7 10 1
44 -12 75 -28z m979 -6 c32 -9 62 -21 68 -28 6 -6 20 -40 32 -76 35 -108 93
-274 102 -291 5 -8 6 -20 2 -26 -9 -13 -199 -96 -210 -91 -5 1 -73 77 -152
167 -136 157 -141 165 -135 198 13 68 26 83 109 123 92 44 106 46 184 24z
m1226 -36 c22 -6 46 -15 51 -19 7 -5 6 -58 -2 -161 -6 -84 -12 -158 -12 -165
-1 -18 -64 -83 -80 -83 -11 0 -306 144 -320 156 -7 6 39 198 50 209 7 7 212
64 268 74 2 1 22 -4 45 -11z m-1490 -238 c26 -32 59 -72 74 -87 69 -71 152
-171 152 -184 0 -8 -17 -41 -38 -74 -20 -33 -43 -71 -50 -85 -30 -57 -30 -57
-157 -61 l-120 -4 -62 152 c-73 178 -73 175 13 262 31 30 72 75 91 98 20 24
39 43 43 43 4 0 28 -27 54 -60z m1414 -228 c16 -19 10 -169 -6 -199 -7 -11
-48 -26 -118 -44 -60 -15 -125 -32 -144 -38 -19 -6 -38 -7 -43 -2 -4 4 -15 39
-23 77 -8 38 -24 110 -34 161 -11 50 -23 98 -26 106 -3 10 12 32 41 60 l46 45
147 -74 c81 -41 153 -82 160 -92z m-1976 100 c6 -6 -32 -94 -153 -349 -11 -24
-23 -43 -26 -43 -6 0 -140 62 -208 95 -30 15 -43 30 -54 60 -7 22 -24 69 -37
104 -27 74 -22 88 44 129 37 23 39 24 232 18 107 -4 198 -10 202 -14z m165
-41 l97 -16 19 -50 c10 -27 39 -97 63 -155 24 -58 44 -110 44 -116 0 -6 -37
-34 -82 -64 -46 -29 -116 -75 -156 -102 -69 -47 -74 -49 -95 -34 -12 9 -60 42
-107 74 -54 36 -86 65 -88 78 -2 11 25 78 59 150 34 71 72 153 85 183 29 64
43 83 56 75 5 -3 53 -13 105 -23z m1300 13 c40 -3 76 -11 82 -17 8 -11 31
-108 64 -274 12 -64 4 -77 -62 -97 -39 -12 -138 -48 -191 -70 -10 -4 -37 15
-77 52 l-62 57 -20 145 c-11 79 -18 147 -15 150 3 3 31 19 62 37 46 26 65 31
102 28 25 -3 77 -7 117 -11z m763 -28 c36 -10 71 -23 77 -30 8 -7 16 -53 19
-114 5 -84 4 -106 -10 -126 -16 -26 -127 -106 -145 -106 -14 0 -149 102 -155
117 -3 7 -1 58 4 114 8 96 10 103 42 136 37 39 52 40 168 9z m-1127 -12 c26
-9 47 -21 47 -27 0 -7 9 -70 20 -142 10 -71 16 -133 12 -137 -10 -10 -336
-128 -354 -128 -14 0 -128 113 -128 128 0 4 6 16 14 27 7 11 30 52 51 90 21
39 47 80 59 92 16 17 198 107 227 112 3 1 26 -6 52 -15z m965 -335 c42 -34 80
-67 83 -73 10 -18 42 -283 35 -294 -3 -5 -18 -12 -33 -15 -16 -3 -46 -10 -68
-15 -138 -34 -156 -36 -173 -24 -9 7 -38 26 -64 43 -42 27 -49 37 -65 92 -9
34 -32 105 -50 157 -26 78 -30 97 -19 108 7 7 64 27 127 44 63 16 116 32 118
34 12 12 39 -2 109 -57z m-1368 -25 c80 -72 100 -106 114 -196 8 -46 17 -90
21 -99 7 -19 -100 -159 -122 -159 -8 0 -48 12 -89 26 -75 27 -111 56 -118 98
-10 55 -41 188 -57 252 -29 108 -33 103 74 107 50 1 102 4 114 5 14 1 38 -12
63 -34z m565 -31 l55 -48 -6 -74 c-3 -41 -7 -78 -10 -83 -5 -7 -72 -56 -153
-111 -17 -12 -39 -17 -66 -14 -51 5 -208 48 -216 59 -7 11 -33 187 -28 192 7
6 344 125 356 125 7 1 38 -20 68 -46z m434 -78 c17 -55 38 -123 47 -151 19
-59 15 -69 -23 -77 -16 -3 -70 -21 -120 -39 l-93 -33 -85 85 -85 85 6 63 c4
34 12 69 18 78 6 8 50 28 96 44 47 16 108 38 135 48 37 14 53 16 62 8 6 -6 26
-56 42 -111z m-1292 59 c14 -49 75 -304 77 -323 1 -9 -24 -24 -64 -38 -36 -14
-81 -31 -101 -40 l-36 -15 -92 67 c-96 71 -102 79 -98 158 l2 47 140 94 c77
52 145 93 150 92 6 -1 15 -20 22 -42z m-461 -64 c142 -97 157 -154 67 -256
-26 -31 -62 -72 -79 -92 l-32 -37 -78 27 c-175 60 -262 93 -264 101 -3 12 277
317 290 317 5 0 48 -27 96 -60z m1462 -239 l84 -79 -11 -74 c-6 -40 -13 -107
-17 -148 -3 -41 -9 -78 -12 -82 -4 -3 -43 -16 -87 -27 l-79 -20 -40 22 -40 22
-32 150 c-18 83 -33 161 -33 175 -1 21 15 35 87 82 48 32 89 58 92 58 3 -1 42
-36 88 -79z m-438 -16 c14 -7 47 -16 73 -19 59 -9 58 -8 96 -191 23 -111 26
-143 17 -153 -7 -7 -68 -23 -137 -36 -133 -24 -164 -22 -248 15 l-44 19 7 46
c3 26 6 82 6 124 0 75 1 79 38 121 82 97 89 102 129 94 21 -4 49 -12 63 -20z
m875 -21 c30 -20 55 -42 55 -49 0 -19 -90 -228 -103 -242 -17 -16 -202 -93
-225 -93 -31 0 -82 30 -82 48 1 39 28 258 35 274 6 15 212 94 253 97 7 1 37
-15 67 -35z m-1734 9 c8 -9 37 -31 64 -48 77 -50 86 -65 107 -172 10 -54 16
-103 14 -109 -4 -12 -171 -94 -189 -94 -7 0 -43 20 -82 45 -121 77 -114 67
-113 138 0 34 5 75 12 90 13 32 143 167 161 167 7 0 19 -7 26 -17z m2099 -25
c5 -13 18 -57 30 -98 19 -69 39 -132 54 -170 8 -22 1 -29 -94 -95 -47 -32 -98
-69 -113 -82 -16 -13 -34 -23 -40 -23 -13 0 -200 166 -206 182 -2 5 10 40 27
76 16 37 37 88 47 115 19 54 36 65 120 83 33 7 76 17 95 22 55 16 70 14 80
-10z m-2642 -7 c22 -11 72 -30 191 -73 119 -42 135 -60 125 -142 -7 -58 -8
-59 -81 -120 -41 -33 -83 -65 -92 -69 -21 -10 -168 31 -175 49 -2 6 -8 91 -12
188 -6 160 -5 176 10 176 9 0 24 -4 34 -9z m1027 -36 c28 -13 57 -25 66 -25 9
0 23 -8 31 -17 13 -15 15 -38 11 -134 l-6 -117 -49 -36 c-27 -20 -54 -39 -61
-42 -20 -7 -243 102 -251 123 -9 21 -36 170 -36 196 0 9 6 17 13 17 7 0 46 13
87 29 92 37 131 38 195 6z m-597 -331 l91 -57 -5 -160 c-2 -89 -7 -164 -12
-168 -13 -13 -158 -59 -186 -59 -40 0 -82 25 -94 57 -11 26 -58 241 -64 290
-2 17 16 37 77 87 44 36 85 66 91 66 6 0 52 -25 102 -56z m1925 -37 l98 -92
-20 -125 c-32 -187 -26 -174 -69 -166 -20 3 -68 11 -107 16 -97 14 -99 15
-114 58 -17 49 -43 119 -81 219 -18 45 -30 87 -28 93 4 14 174 87 203 88 12 1
59 -35 118 -91z m-1467 12 l106 -50 -7 -37 c-3 -20 -10 -50 -16 -67 -5 -16
-13 -48 -19 -70 -9 -39 -13 -42 -143 -108 l-133 -68 -52 12 c-68 14 -86 32
-78 78 3 20 6 89 6 153 l0 118 98 49 c53 28 105 48 114 45 10 -3 65 -28 124
-55z m769 17 c39 -17 42 -30 26 -127 -8 -46 -23 -148 -36 -236 -7 -43 -13 -46
-102 -39 -125 10 -123 9 -148 112 -55 225 -59 244 -50 253 6 5 55 17 110 26
55 10 102 19 104 21 10 9 64 3 96 -10z m299 -9 c34 -19 43 -32 66 -97 15 -41
30 -84 35 -95 4 -11 16 -45 27 -75 11 -30 25 -66 31 -79 12 -25 10 -28 -79
-93 -39 -29 -84 -36 -126 -19 -13 6 -70 24 -127 42 l-103 32 6 51 c4 28 15
110 24 181 l17 130 65 22 c83 28 116 28 164 0z"/>
</g>
</svg>
